<svg width="13" height="16" viewBox="0 0 13 16" fill="none" xmlns="http://www.w3.org/2000/svg">
<path d="M11.696 1.88398H9.53387V0.495767C9.53387 0.216339 9.30575 0 9.02295 0C8.99551 0 8.97721 0.00905114 8.96828 0.0180816C8.95912 0.00905114 8.94082 0 8.93168 0H3.85002H3.81363H3.77702C3.49423 0 3.27527 0.216339 3.27527 0.495767V1.884H1.10396C0.483472 1.884 0 2.36169 0 2.97475V3.768V4.75952H0.957971V14.9183C0.957971 15.5314 1.4323 16 2.05279 16H10.7472C11.3677 16 11.8512 15.5314 11.8512 14.9183V4.75952H12.8V3.768V2.97475C12.8 2.36169 12.3163 1.88398 11.696 1.88398ZM4.2788 0.991513H8.5212V1.88398H4.2788V0.991513V0.991513ZM10.8385 14.9183C10.8385 14.9816 10.8111 15.0085 10.7472 15.0085H2.05279C1.98896 15.0085 1.96152 14.9815 1.96152 14.9183V4.75949H10.8385V14.9183V14.9183ZM11.7873 3.76798H1.01266V2.97473C1.01266 2.91164 1.0401 2.87549 1.10394 2.87549H11.696C11.7599 2.87549 11.7873 2.91164 11.7873 2.97473V3.76798Z" fill="#767676"/>
<path d="M9.25107 5.92236H8.2384V14.1251H9.25107V5.92236Z" fill="#767676"/>
<path d="M6.9155 5.92236H5.90283V14.1251H6.9155V5.92236Z" fill="#767676"/>
<path d="M4.5798 5.92236H3.56714V14.1251H4.5798V5.92236Z" fill="#767676"/>
</svg>
